<svg 
    width="260px" 
    height="181px" 
    viewBox="0 0 260 181" 
    version="1.1" 
    xmlns="http://www.w3.org/2000/svg" 
    xmlns:xlink="http://www.w3.org/1999/xlink" 
    fill="#fff" 
    fill-rule="evenodd"
>
    <g stroke="none" stroke-width="1">
        <g transform="translate(-69.000000, -203.000000)">
            <path d="M197.527,306.691 C197.351,306.477 197.018,306.354 196.731,306.285 C196.572,306.246 196.223,306.378 196.21,306.468 C196.172,306.735 196.17,307.091 196.32,307.279 C196.493,307.495 196.844,307.568 197.078,307.684 C197.326,307.612 197.676,307.564 197.679,307.501 C197.69,307.228 197.683,306.882 197.527,306.691"></path>
            <path d="M199.633,343.848 C199.407,346.705 199.313,349.498 200.261,352.437 C200.404,351.941 200.65,351.45 200.67,350.95 C200.751,348.93 200.776,346.907 200.784,344.885 C200.785,344.586 200.626,344.264 200.463,344 C200.401,343.898 200.123,343.929 199.633,343.848"></path>
            <path d="M198.074,321.144 C199.004,318.409 199.509,316.231 198.443,313.92 C197.748,316.095 197.123,318.296 198.074,321.144"></path>
            <path d="M126.05,214.619 C124.627,214.714 123.716,215.527 122.753,217.032 C124.647,216.778 125.346,215.688 126.05,214.619" ></path>
            <path d="M197.474,251.724 C197.83,251.66 198.2,251.255 197.671,250.59 C196.482,250.686 195.184,250.789 193.288,250.941 C194.067,251.521 194.361,251.925 194.665,251.932 C195.601,251.955 196.553,251.891 197.474,251.724" ></path>
            <path d="M103.424,287.567 C103.483,287.716 103.569,287.855 103.647,287.996 C103.773,287.914 103.899,287.833 104.025,287.748 C103.895,287.639 103.774,287.516 103.63,287.431 C103.597,287.412 103.417,287.549 103.424,287.567" ></path>
            <path d="M195.992,246.972 C193.383,244.708 190.971,243.478 188.89,243.308 C188.552,243.281 188.19,243.557 187.433,243.85 C188.171,244.258 188.487,244.537 188.845,244.611 C190.2,244.894 191.468,245.063 192.471,246.362 C193.066,247.133 194.375,247.635 195.992,246.972" ></path>
            <path d="M216.701,291.056 C216.39,291.094 216.083,291.205 215.786,291.317 C215.329,291.489 215.061,292.234 215.37,292.661 C215.663,293.066 216.085,293.378 216.572,293.848 C217.169,293.518 217.807,293.334 218.166,292.913 C218.441,292.59 218.568,291.878 218.4,291.498 C218.093,290.807 217.326,290.979 216.701,291.056" ></path>
            <path d="M226.152,266.567 C224.859,267.914 223.56,269.317 222.207,270.665 C220.832,272.034 218.89,272.853 218.254,274.919 C220.7,274.035 222.669,272.586 224.325,270.766 C225.175,269.832 225.798,268.685 226.469,267.6 C226.652,267.304 226.883,266.832 226.152,266.567" ></path>
            <path d="M205.78,309.191 C205.086,308.248 204.292,307.359 203.436,306.561 C202.595,305.777 201.503,305.59 200.442,306.049 C200.056,306.216 199.831,306.755 199.405,307.284 C199.977,307.43 200.273,307.588 200.555,307.564 C202.391,307.409 203.602,308.216 204.407,309.842 C204.88,310.796 205.514,311.671 206.079,312.579 C206.773,313.693 207.663,314.575 209.233,315.152 C209.227,314.596 209.305,314.339 209.211,314.198 C208.087,312.515 206.979,310.819 205.78,309.191" ></path>
            <path d="M193.519,351.234 C194.628,350.237 195.427,349.434 195.044,348.017 C194.16,348.812 192.933,349.432 193.519,351.234" ></path>
            <path d="M174.544,296.182 C175.193,296.848 175.654,297.354 176.161,297.811 C176.251,297.892 176.587,297.828 176.704,297.719 C176.824,297.607 176.911,297.31 176.846,297.174 C176.454,296.357 175.88,295.836 174.544,296.182" ></path>
            <path d="M168.001,268.702 C167.938,268.635 167.637,268.79 167.428,268.846 C167.191,269.826 167.906,270.39 168.423,271.013 C169.707,272.559 170.962,274.15 172.971,274.838 C173.196,274.95 173.42,275.061 173.644,275.173 C173.543,274.958 173.442,274.743 173.341,274.528 C171.566,272.581 169.796,270.63 168.001,268.702" ></path>
            <path d="M143.561,215.796 C143.394,215.937 143.411,216.296 143.346,216.556 C143.54,216.574 143.787,216.675 143.918,216.593 C144.315,216.342 144.668,216.02 145.037,215.725 C144.903,215.563 144.769,215.402 144.634,215.24 C144.27,215.418 143.86,215.542 143.561,215.796" ></path>
            <path d="M176.082,282.882 C175.477,282.849 175.08,283.124 174.938,283.715 C174.638,284.97 174.661,286.223 175.112,287.435 C175.199,287.669 175.556,287.802 176.046,288.181 C176.774,286.6 176.955,285.254 177.022,283.893 C177.051,283.297 176.718,282.916 176.082,282.882" ></path>
            <path d="M196.887,361.051 L196.919,361.106 C196.919,361.106 196.919,361.106 196.92,361.106 C196.92,361.107 196.887,361.051 196.887,361.051" fill="#D2B126"></path>
            <path d="M188.146,275.675 C187.716,277.214 187.716,277.214 189.179,278.089 C189.122,276.498 189.122,276.498 188.146,275.675" ></path>
            <path d="M178.725,330.073 C179.54,334.347 180.843,338.444 181.016,342.765 C181.03,343.121 181.382,343.531 182.069,343.205 C182.333,339.92 181.885,336.661 180.854,333.471 C180.437,332.184 180.087,330.843 178.725,330.073" ></path>
            <path d="M178.157,279.473 C178.092,279.743 178.047,280.159 178.2,280.309 C178.475,280.58 178.885,280.781 179.267,280.844 C179.453,280.875 179.701,280.527 180.133,280.18 C179.552,279.819 179.155,279.531 178.718,279.327 C178.575,279.26 178.18,279.378 178.157,279.473" ></path>
            <path d="M190.409,311.66 C190.194,312.77 189.087,313.645 189.642,315.193 C192.204,312.834 192.5,310.931 190.775,308.682 C189.704,309.554 190.601,310.674 190.409,311.66" ></path>
            <path d="M182.312,289.598 C182.222,289.561 182.08,289.553 182.003,289.599 C181.334,289.994 181.3,290.624 181.55,291.235 C181.686,291.564 182.058,291.796 182.411,292.164 C182.647,291.707 182.844,291.452 182.912,291.167 C183.065,290.528 183.055,289.907 182.312,289.598" ></path>
            <path d="M168.826,277.935 C168.252,277.527 167.566,277.276 166.926,276.96 C167.006,277.564 166.905,278.403 167.246,278.663 C168.214,279.399 168.653,280.395 169.161,281.397 C169.211,281.497 169.542,281.454 169.742,281.477 C170.185,279.214 170.127,278.857 168.826,277.935" ></path>
            <path d="M225.677,232.775 C225.632,232.736 225.565,232.723 225.507,232.699 C225.583,232.746 225.658,232.794 225.733,232.841 C225.715,232.819 225.699,232.793 225.677,232.775" ></path>
            <path d="M308.089,274 C308.097,274.158 308.128,274.317 308.172,274.47 C308.175,274.48 308.419,274.438 308.418,274.428 C308.41,274.264 308.379,274.102 308.352,273.939 C308.26,273.96 308.088,273.984 308.089,274" ></path>
            <path d="M237.746,222.504 C237.613,220.746 236.708,220.122 236.055,219.357 C235.782,219.038 235.406,218.857 234.963,219.433 C235.426,220.569 236.294,221.404 237.746,222.504" ></path>
            <path d="M273.652,240.873 C273.662,240.884 273.673,240.897 273.673,240.898 C273.673,240.897 273.662,240.884 273.652,240.873" ></path>
            <path d="M254.37,286.885 C254.349,286.83 254.324,286.767 254.298,286.699 C254.294,286.686 254.29,286.673 254.286,286.66 C254.091,286.605 253.853,286.587 253.742,286.459 C252.411,284.932 252.057,283.4 252.452,280.807 C253.088,282.839 253.687,284.75 254.286,286.66 C254.302,286.665 254.321,286.667 254.336,286.673 L254.298,286.699 L254.336,286.673 C254.349,286.752 254.361,286.823 254.371,286.886 C254.376,286.899 254.376,286.898 254.38,286.909 C254.422,287.016 254.436,287.052 254.38,286.909 C254.377,286.9 254.374,286.895 254.371,286.886 C254.394,287.025 254.404,287.089 254.37,286.885 Z M323.499,264.299 C319.007,266.504 315.139,269.558 311.59,273.036 C310.331,274.27 309.1,275.451 307.12,275.085 C306.072,276.714 305.08,278.233 304.113,279.768 C303.164,281.274 301.359,282.135 300.779,283.985 C301.72,284.373 302.026,283.646 302.439,283.275 C303.396,282.414 304.258,281.45 305.209,280.583 C305.961,279.897 307.288,280.284 307.855,279.111 C308.319,278.155 308.985,277.296 309.573,276.402 C309.75,276.134 309.964,275.892 310.152,275.65 C310.474,276.053 310.712,276.231 310.682,276.33 C309.738,279.508 307.779,282.047 305.54,284.403 C304.939,285.035 304.272,285.64 303.346,285.624 C302.142,285.605 301.305,286.258 300.552,287.031 C298.378,289.266 296.28,291.575 294.082,293.785 C291.429,296.451 288.732,299.075 285.997,301.655 C285.155,302.449 284.124,303.042 283.185,303.722 C280.871,302.58 278.849,301.44 277.935,298.884 C280.926,296.345 283.93,293.924 286.784,291.337 C289.615,288.773 292.723,286.466 295.006,283.325 C294.415,282.825 294.048,283.176 293.766,283.421 C290.687,286.107 287.666,288.861 284.55,291.503 C282.339,293.377 280.045,295.16 277.71,296.878 C276.521,297.753 275.897,297.579 274.966,296.408 C274.187,295.427 273.484,294.383 272.543,293.084 C271.602,295.664 273.585,296.936 274.232,298.814 C273.816,299.205 273.436,299.724 272.925,300.015 C271.528,300.812 270.061,301.487 268.65,302.262 C267.777,302.741 266.964,302.628 266.235,302.081 C265.641,301.635 265.16,301.041 264.617,300.524 C264.262,300.186 263.886,299.868 263.3,299.346 C262.693,301.549 264.917,302.302 264.948,303.896 C264.435,304.781 263.662,304.584 263.008,304.201 C262.37,303.827 261.862,303.237 261.277,302.765 C260.896,302.456 260.481,302.189 260.027,301.864 C259.339,303.25 261.06,303.818 260.607,305.134 C259.999,305.221 259.251,305.52 258.589,305.388 C256.006,304.869 253.72,303.808 252.027,301.633 C248.623,297.262 247.197,292.412 247.784,286.856 C248.442,280.646 249.687,274.539 250.626,268.38 C251.339,263.702 251.994,258.98 251.645,254.248 C251.303,249.62 253.466,247.128 257.479,245.284 C257.867,245.106 258.283,244.97 258.699,244.875 C259.003,244.805 259.329,244.834 259.834,244.809 C260.824,247.82 259.82,250.907 259.987,253.853 C260.682,254.131 261.002,253.829 261.081,253.394 C261.444,251.394 261.755,249.385 262.089,247.358 C262.997,247.558 262.896,248.152 262.901,248.636 C262.922,250.347 262.907,252.057 262.905,253.687 C264.183,254.245 264.23,253.156 264.801,252.682 C265.088,254.011 265.378,255.352 265.687,256.78 C267.106,256.345 266.792,254.835 267.833,254.288 C267.933,254.388 268.133,254.586 268.494,254.944 C269.559,253.819 270.671,252.895 270.847,251.066 C271.135,248.072 271.719,245.1 272.89,242.293 C273.074,241.85 273.349,241.445 273.595,241.028 C273.61,240.971 273.626,240.915 273.641,240.858 C273.641,240.858 273.647,240.866 273.652,240.873 C273.647,240.866 273.64,240.858 273.64,240.857 C273.662,240.816 273.688,240.776 273.71,240.735 C274.403,237.653 275.165,234.611 276.931,231.897 C278.024,230.218 276.793,227.772 274.635,227.105 C273.478,226.748 272.272,226.665 271.157,227.162 C269.598,227.856 268.207,227.502 266.875,226.674 C265.147,225.599 263.245,224.686 261.796,223.306 C259.053,220.694 256.047,218.489 252.867,216.48 C252.693,216.37 252.571,216.178 252.315,215.909 C252.888,214.733 253.97,214.392 255.154,214.397 C257.102,214.406 259.013,214.709 260.737,215.703 C262.221,216.558 263.666,217.482 265.162,218.317 C265.6,218.562 266.147,218.613 266.65,218.732 C266.693,218.742 266.772,218.596 266.918,218.424 C264.813,215.754 261.238,215.271 258.525,213.066 C260.02,212.133 261.329,212.151 262.705,212.576 C265.393,213.406 267.85,214.699 270.193,216.234 C270.982,216.751 271.808,217.212 272.581,217.678 C273.364,217.018 272.925,216.506 272.568,216.237 C271.718,215.599 270.796,215.044 269.857,214.54 C268.534,213.83 267.158,213.22 265.832,212.515 C265.496,212.336 265.265,211.961 264.71,211.396 C267.928,211.484 270.036,213.268 272.421,214.322 C273.023,214.161 272.788,213.658 272.849,213.276 C272.071,213.018 271.308,212.737 270.874,211.785 C271.951,211.816 272.828,211.923 273.008,213.157 L273.009,213.156 C273.652,212.926 274.232,212.974 274.819,213.389 C277.117,215.013 279.01,216.992 280.67,219.858 C278.282,218.881 277.407,216.664 275.388,215.938 C274.821,216.488 275.438,216.857 275.709,217.166 C277.539,219.256 279.348,221.37 281.284,223.359 C282.8,224.916 282.935,226.471 281.834,228.264 C281.054,229.535 280.469,230.953 279.544,232.103 C277.355,234.823 275.376,237.669 273.71,240.735 C273.698,240.789 273.685,240.844 273.673,240.898 C273.648,240.942 273.621,240.985 273.595,241.028 C273.501,241.388 273.414,241.749 273.305,242.103 C272.896,243.427 273.367,244.388 274.71,245.204 C276.752,243.28 276.981,240.022 279.642,237.914 C279.601,238.721 279.627,239.106 279.554,239.471 C279.156,241.475 278.762,243.479 278.316,245.472 C277.134,250.748 276.764,256.094 276.872,261.484 C276.898,262.772 276.711,264.125 277.041,265.334 C277.567,267.263 277.099,268.898 276.118,270.63 C275.634,270.788 275.029,270.985 274.366,271.201 C274.143,270.948 273.827,270.748 273.755,270.483 C273.022,267.763 272.898,264.977 272.916,262.178 C272.92,261.536 272.963,260.887 272.885,260.255 C272.854,260.008 272.539,259.797 272.17,259.346 C270.467,263.25 271.396,267.057 271.592,271.405 C269.791,268.43 270.817,265.397 269.585,262.483 C267.163,266.077 266.577,269.851 266.042,273.97 C264.928,272.422 265.64,270.773 264.956,269.496 C264.305,268.956 263.656,269.158 263.223,269.654 C262.454,270.534 261.802,271.518 261.116,272.47 C260.82,272.881 260.562,273.319 260.125,273.994 C259.229,272.651 259.229,271.386 259.18,270.175 C259.129,268.945 259.57,267.683 259.124,266.377 C257.543,266.849 258.275,268.339 257.394,269.077 C256.677,266.059 256.748,263.06 256.869,260.068 C256.959,257.864 257.013,257.84 256.186,255.792 C254.511,257.69 253.991,260.647 252.293,277.929 C251.945,278.549 250.906,278.197 250.738,279.223 C250.286,281.994 250.607,284.636 252.064,287.008 C253.789,289.816 256.456,291.038 259.735,290.849 C262.241,290.704 264.652,290.089 266.758,288.714 C269.545,286.895 272.427,285.145 274.919,282.967 C279.4,279.053 284.189,275.637 289.322,272.656 C291.085,271.632 292.764,270.454 294.429,269.273 C295.006,268.864 295.424,268.231 295.939,267.674 C295.605,267.467 295.368,267.228 295.273,267.275 C293.677,268.071 292.099,268.902 290.431,269.771 C292.387,266.186 298.728,262.488 305.285,261.035 C312.837,259.363 320.997,260.219 325.038,263.212 C324.494,263.602 324.037,264.035 323.499,264.299 Z M275.767,309.115 C273.101,308.114 271,306.414 268.889,304.462 C270.74,302.469 273.151,302.005 274.919,300.69 C277.334,302.042 278.644,303.36 280.038,305.798 C279.019,307.342 277.341,308.078 275.767,309.115 Z M270.763,311.556 C270.055,311.38 269.335,311.09 268.734,310.683 C267.126,309.593 265.961,308.078 264.563,306.274 C266.327,305.5 267.387,305.961 268.289,306.755 C269.644,307.949 270.912,309.239 272.129,310.404 C272.011,311.431 271.452,311.727 270.763,311.556 Z M262.776,312.175 C260.824,311.443 259.362,310.07 258.532,308.104 C260.73,306.651 262.081,306.701 263.809,308.326 C264.35,308.835 264.868,309.38 265.314,309.971 C265.883,310.724 266.368,311.541 267.059,312.589 C265.242,313.532 263.994,312.632 262.776,312.175 Z M240.864,240.4 C237.93,239.084 234.987,237.786 232.066,236.443 C231.505,236.184 231.025,235.75 230.485,235.383 C230.898,232.455 233.755,231.771 234.911,229.542 C235.951,230.159 236.68,230.576 237.393,231.018 C240.487,232.94 243.597,234.837 246.66,236.806 C249.184,238.429 251.67,240.112 254.13,241.829 C254.794,242.292 255.304,242.974 256.033,243.705 C254.349,245.145 253.236,246.893 251.154,247.453 C250.826,247.25 250.493,247.138 250.299,246.909 C247.737,243.89 244.409,241.99 240.864,240.4 Z M248.591,251.535 C248.364,251.743 248.066,251.874 247.585,252.172 C243.469,250.125 239.228,248.114 235.084,245.919 C232.726,244.67 230.514,243.141 228.263,241.696 C227.467,241.185 226.606,240.682 226.307,239.434 C226.571,239.025 226.85,238.447 227.26,237.985 C228.329,236.78 228.926,236.624 230.357,237.356 C234.739,239.597 239.126,241.832 243.445,244.19 C246.012,245.591 248.131,247.537 249.616,250.382 C249.157,250.906 248.901,251.25 248.591,251.535 Z M245.375,255.702 C245.085,256.465 244.435,256.83 243.587,256.685 C241.854,256.387 240.4,255.465 238.923,254.589 C234.59,252.019 230.26,249.444 225.907,246.91 C224.719,246.218 223.453,245.662 222.006,244.934 C222.618,243.24 223.75,242.568 224.706,241.488 C225.289,241.843 225.81,242.155 226.326,242.475 C231.978,245.973 237.63,249.473 243.281,252.973 C243.827,253.31 244.392,253.621 244.912,253.994 C245.509,254.422 245.632,255.024 245.375,255.702 Z M243.298,261.182 C242.898,263.099 242.402,263.485 240.472,263.517 C237.052,263.573 233.908,262.583 230.963,260.93 C229.469,260.092 228.011,259.181 226.594,258.219 C223.67,256.233 220.781,254.194 217.887,252.164 C217.633,251.986 217.445,251.712 217.129,251.38 C217.542,249.4 218.917,248.086 220.462,246.955 C220.808,246.702 221.531,246.755 221.995,246.915 C223.208,247.33 224.443,247.762 225.546,248.4 C229.625,250.763 233.662,253.197 237.697,255.633 C239.614,256.79 241.493,258.012 243.485,259.265 C243.424,259.933 243.425,260.571 243.298,261.182 Z M187.775,328.838 L187.822,328.808 C187.822,328.808 187.775,328.838 187.776,328.837 C187.776,328.8 187.779,328.762 187.781,328.725 C187.723,328.608 187.665,328.492 187.607,328.376 C187.664,328.431 187.749,328.476 187.769,328.542 C187.787,328.599 187.785,328.662 187.781,328.725 C187.795,328.753 187.809,328.78 187.822,328.808 C187.823,328.856 187.827,328.904 187.829,328.952 C188.756,330.747 188.703,332.674 188.781,334.749 C187.594,334.527 187.214,333.738 187.517,333.143 C188.231,331.74 187.873,330.351 187.829,328.952 C187.809,328.914 187.796,328.875 187.775,328.838 Z M186.294,329.912 C186.284,329.858 186.272,329.806 186.262,329.752 C186.212,329.661 186.161,329.569 186.11,329.477 C186.155,329.532 186.216,329.58 186.24,329.643 C186.254,329.677 186.256,329.715 186.262,329.752 C186.286,329.796 186.311,329.84 186.335,329.883 C186.288,329.845 186.488,330.16 186.294,329.912 L186.335,329.883 L186.294,329.912 Z M234.376,267.801 C232.998,268.809 231.5,269.657 230.027,270.53 C229.796,270.667 229.289,270.704 229.146,270.558 C228.584,269.981 228.044,269.945 227.453,270.428 C226.674,271.064 226.13,271.826 226.185,272.907 C226.334,275.814 226.916,278.483 229.843,279.95 C230.118,280.088 230.324,280.363 230.67,280.671 C230.594,281.131 230.515,281.638 230.427,282.143 C230.217,283.353 230.639,284.148 231.673,284.283 C232.058,284.333 232.652,284.235 232.842,283.977 C233.119,283.601 233.117,283.019 233.234,282.525 C233.257,282.427 233.281,282.328 233.346,282.056 C234.952,282.175 236.073,283.128 237.025,284.286 C237.652,285.049 237.456,285.926 236.944,286.69 C235.731,288.503 234.151,289.909 232.172,290.969 C231.857,290.468 231.597,290.055 231.34,289.646 C231.118,289.751 230.854,289.787 230.773,289.928 C230.401,290.578 230.11,291.274 229.733,291.921 C229.475,292.363 229.211,292.943 228.799,293.129 C227.48,293.726 227.246,294.91 227.164,296.067 C226.989,298.539 226.96,301.023 228.44,303.224 C228.606,303.469 228.637,303.805 228.73,304.098 C227.961,305.073 226.828,305.125 225.832,305.436 C224.396,305.885 222.926,306.228 221.491,306.68 C220.304,307.055 219.46,307.743 219.183,309.099 C218.845,310.751 217.692,311.899 216.14,312.913 C216.694,313.418 217.226,313.748 217.525,314.225 C217.788,314.645 217.789,315.228 217.97,316.016 C218.538,315.67 219.037,315.497 219.345,315.153 C220.206,314.193 220.939,313.119 221.812,312.172 C223.084,310.79 224.578,309.8 226.566,309.957 C226.945,310.597 226.537,311.015 226.281,311.468 C224.909,313.894 223.334,316.221 222.561,318.943 C222.419,319.444 222.148,320.086 222.334,320.471 C222.962,321.773 222.561,323.029 222.328,324.268 C221.825,326.939 221.984,329.624 222.037,332.303 C222.056,333.249 222.291,334.231 222.622,335.124 C223.216,336.725 222.887,338.115 221.845,339.341 C220.678,340.713 219.283,341.842 217.625,343.086 C216.54,337.516 218.319,332.688 219.98,327.906 C219.088,327.445 218.789,327.994 218.584,328.425 C217.051,331.651 215.936,335 215.778,338.607 C215.678,340.871 215.765,343.111 216.354,345.324 C216.708,346.653 216.925,348.022 216.357,349.649 C216.01,348.735 215.766,348.094 215.527,347.464 C214.552,347.737 214.532,348.459 214.424,349.051 C213.826,352.324 212.677,355.477 212.475,358.843 C212.374,360.527 212.096,362.273 210.454,363.696 C211.323,359.576 211.414,355.637 211.128,351.684 C211.075,350.951 210.947,350.222 210.849,349.492 C210.795,349.08 210.619,348.647 210.691,348.26 C211.379,344.558 210.758,340.987 209.697,337.449 C209.389,336.42 209.13,335.376 208.815,334.212 C209.914,331.744 211.087,329.216 212.165,326.648 C212.739,325.28 213.438,323.95 213.402,322.36 C213.387,321.662 213.857,320.952 214.113,320.25 C214.397,319.474 214.687,318.701 215.201,317.317 C214.358,317.932 213.961,318.094 213.757,318.39 C211.928,321.041 210.147,323.725 208.323,326.379 C205.946,329.836 205.486,333.5 207.023,337.416 C207.534,338.717 207.952,340.056 208.485,341.348 C209.286,343.293 209.28,345.336 209.343,347.378 C209.369,348.201 208.993,348.829 208.388,349.332 C207.731,349.878 207.052,350.398 206.473,350.858 C206.315,351.816 206.37,352.733 206.013,353.444 C204.195,357.062 203.683,361.225 201.173,365.234 C200.936,363.071 200.741,361.506 200.598,359.936 C200.456,358.378 200.898,356.765 200.143,354.726 C198.766,357.919 199.818,360.839 199.198,363.655 C198.319,363.742 198.485,362.829 198.114,362.455 C197.69,362.026 197.315,361.549 196.921,361.091 C196.92,361.097 196.92,361.101 196.92,361.107 L196.919,361.106 C196.908,361.094 196.898,361.081 196.887,361.069 C196.898,361.804 196.909,362.539 196.921,363.293 C196.164,363.323 195.312,363.111 194.823,363.44 C194.272,363.81 193.967,364.636 193.705,365.321 C193.404,366.108 193.287,366.964 193.044,367.776 C192.996,367.937 192.74,368.037 192.58,368.164 C190.135,365.525 189.632,361.863 191.335,359.079 C192.175,357.704 193.329,357.452 194.535,358.523 C195.395,359.286 196.11,360.212 196.887,361.069 C196.887,361.063 196.887,361.057 196.887,361.051 C196.898,361.065 196.909,361.078 196.921,361.091 C197.187,359.195 196.067,357.827 195.033,356.489 C194.312,355.555 193.402,354.794 193.492,353.45 C193.511,353.168 193.297,352.838 193.119,352.58 C191.95,350.883 190.365,349.685 188.411,348.379 C187.844,351.099 188.574,353.41 188.402,355.709 C188.234,357.949 188.134,360.194 187.966,363.097 C186.337,359.952 185.658,357.183 185.245,354.357 C184.847,351.636 184.623,348.89 184.283,345.788 C182.777,347.104 183.617,348.911 182.73,349.979 C182.048,350.018 181.901,349.616 181.863,349.176 C181.817,348.643 181.822,348.103 181.832,347.567 C181.849,346.646 181.457,345.94 180.825,345.285 C179.706,344.125 178.683,342.871 177.553,341.722 C176.481,340.632 176.118,339.447 176.424,337.918 C178.101,329.549 175.717,321.991 171.704,314.767 C170.982,313.468 169.989,312.754 168.516,312.324 C165.192,311.355 163.084,308.686 162.264,304.761 C162.816,304.781 163.331,304.752 163.831,304.826 C165.502,305.076 165.5,305.09 165.517,307.338 C169.656,310.169 172.77,314.063 175.164,319.157 C175.965,317.336 175.43,316.31 174.899,315.306 C174.397,314.359 173.872,313.421 173.296,312.518 C172.675,311.546 171.982,310.62 171.208,309.514 C172.919,309.226 173.961,309.772 174.698,310.971 C176.736,314.288 178.564,317.719 178.995,321.653 C179.419,325.538 180.772,329.165 181.878,332.853 C182.785,335.878 184.554,338.465 186.818,340.518 C186.651,344.795 186.651,344.795 187.858,346.32 C187.99,346.173 188.211,346.041 188.238,345.877 C188.793,342.478 189.577,339.138 190.651,335.863 C190.916,335.054 190.971,334.176 191.132,333.332 C191.301,332.447 191.078,331.668 190.687,330.857 C189.289,327.957 187.975,325.016 186.603,322.104 C185.962,320.745 185.283,319.403 184.58,318.075 C184.014,317.007 183.376,316.104 181.893,316.166 C181.203,316.195 180.856,315.505 181.147,314.521 C181.546,314.448 182.042,314.347 182.541,314.268 C184.403,313.973 185.299,312.768 185.618,311.016 C185.637,310.911 185.648,310.803 185.656,310.696 C185.876,307.472 185.301,304.31 185.189,301.27 C184.192,300.775 183.604,300.995 183.286,301.656 C182.48,303.332 181.994,305.022 182.937,306.868 C183.524,308.018 183.852,309.267 183.443,310.612 C183.192,311.437 182.685,311.866 181.884,312.032 C181.017,312.212 180.396,311.838 180.025,311.102 C179.446,309.951 178.774,308.81 178.435,307.584 C178.057,306.217 177.14,305.616 175.954,305.356 C174.703,305.082 173.406,305.012 172.128,304.861 C171.5,304.786 170.869,304.729 170.33,304.673 C169.542,303.631 170.038,302.691 170.226,301.785 C170.739,299.312 170.67,296.871 169.951,294.453 C169.864,294.159 169.653,293.902 169.387,293.426 C168.927,293.68 168.512,293.91 168.12,294.126 C166.056,292.243 163.992,290.371 161.944,288.483 C161.313,287.902 160.651,287.331 160.131,286.657 C158.49,284.526 158.908,282.31 161.162,280.901 C161.526,280.674 161.906,280.455 162.306,280.308 C164.162,279.627 165.585,278.371 166.881,276.939 C166.877,276.937 166.874,276.936 166.87,276.934 C166.818,275.294 166.09,274.084 164.648,273.265 C164.094,272.951 163.407,272.579 163.168,272.056 C162.279,270.106 160.854,268.888 158.953,267.923 C158.16,267.521 157.834,266.196 157.186,265.106 C156.229,265.21 155.18,265.443 154.143,265.397 C153.321,265.361 152.492,265.04 151.709,264.735 C151.234,264.55 151.05,264.001 150.634,262.564 C154.448,258.791 165.037,251.533 168.988,250.028 C169.408,250.383 169.916,250.756 170.353,251.2 C170.714,251.567 170.991,252.016 171.29,252.41 C172.012,252.034 171.754,251.624 171.563,251.253 C171.279,250.7 170.961,250.165 170.696,249.692 C171.361,248.351 172.537,247.944 173.589,247.497 C174.824,246.972 175.791,246.169 176.64,245.199 C176.961,244.831 177.364,244.361 176.893,243.547 C176.388,243.924 175.909,244.271 175.443,244.634 C174.167,245.625 172.884,246.576 171.274,247.002 C169.279,247.529 168.298,247.198 167.249,245.413 C166.764,244.589 166.381,243.705 165.966,242.877 C166.643,240.344 169.358,239.628 170.581,237.644 C170.025,236.919 169.566,237.331 169.177,237.63 C167.735,238.736 166.32,239.875 164.884,241.011 C163.667,240.533 162.916,239.888 162.622,238.561 C164.603,236.957 167.204,236.013 168.992,233.38 C167.563,233.518 166.873,234.204 166.094,234.649 C165.349,235.074 164.647,235.576 163.896,235.991 C163.063,236.452 162.196,236.851 161.454,237.223 C158.596,235.486 158.578,235.466 156.959,232.368 C158.719,229.774 162.025,229.051 164.423,226.58 C160.619,226.848 158.467,229.727 155.601,230.936 C153.704,229.65 153.704,229.65 153.062,227.724 C153.809,226.267 155.316,225.522 156.412,224.376 C157.465,223.275 158.958,222.532 159.971,220.455 C156.281,222.052 154.518,225.264 151.378,226.32 C149.604,225.307 149.604,225.307 148.469,223.626 C150.717,221.625 153.246,219.863 155.264,217.624 C154.853,216.937 154.415,217.119 154.093,217.375 C152.501,218.638 150.959,219.965 149.355,221.211 C148.774,221.662 148.069,221.952 147.491,222.276 C144.472,220.941 143.493,220.12 141.758,217.448 C140.335,216.953 138.443,216.875 137.713,214.841 C138.812,213.151 141.468,213.321 142.318,211.237 C141.715,210.479 141.157,211.095 140.66,211.339 C138.083,212.6 135.372,212.895 132.304,212.67 C132.53,212.148 132.585,211.679 132.848,211.465 C135.822,209.039 139.176,207.473 143.009,206.906 C144.503,206.685 145.527,207.018 146.107,208.613 C146.953,208.436 147.767,208.194 148.596,208.117 C149.178,208.064 149.932,207.916 150.005,208.96 C150.019,209.159 150.719,209.524 151.02,209.454 C153.153,208.96 154.779,209.841 156.289,211.19 C157.49,212.263 158.774,213.245 159.946,214.348 C163.385,217.584 166.808,220.838 170.187,224.137 C170.943,224.876 171.679,225.748 172.091,226.703 C172.803,228.353 173.934,229.565 175.305,230.635 C176.609,231.654 177.595,232.934 177.998,234.55 C178.308,235.794 178.914,236.753 180.123,237.177 C181.3,237.59 181.736,238.508 182.055,239.567 C182.855,242.218 182.821,244.882 182.011,247.506 C181.767,248.294 181.226,249.011 180.732,249.696 C180.047,250.648 179.277,251.54 178.544,252.458 C177.495,253.102 176.512,253.817 175.322,255.381 C177.149,254.613 178.237,254.07 178.925,252.93 C182.812,250.387 184.252,246.692 183.875,242.03 C184.468,241.774 185.014,241.386 185.602,241.31 C188.124,240.982 190.59,240.272 193.227,240.99 C194.612,241.366 196.21,240.962 197.712,240.911 C199.966,240.835 202.221,240.726 204.476,240.707 C205.055,240.702 205.636,240.98 206.314,241.153 C204.852,242.869 204.852,242.869 198.85,243.161 C198.628,243.698 198.917,243.982 199.385,244.047 C200.546,244.209 201.715,244.315 202.804,244.434 C203.242,245.225 202.718,245.532 202.317,245.827 C201.209,246.64 200.073,247.415 198.865,248.264 C200.757,249.337 201.018,249.367 202.067,248.452 C203.12,247.535 204.079,246.506 205.168,245.638 C205.713,245.203 206.456,245.016 207.265,244.646 C207.976,246.339 209.036,247.506 210.449,248.354 C211.524,248.999 211.95,250.305 213.208,250.862 C214.359,251.372 215.32,252.306 216.376,253.039 C221.762,256.782 227.146,260.527 233.145,263.268 C233.915,263.62 234.625,264.104 235.278,264.478 C235.721,265.905 235.409,267.045 234.376,267.801 Z M237.735,282.295 C237.278,282.251 236.847,282.329 236.573,282.157 C236.043,281.825 235.588,281.365 235.126,280.932 C234.827,280.652 234.57,280.326 234.079,279.782 C236.279,279.052 236.751,279.405 237.735,282.295 Z M238.334,289.152 C238.491,291.991 238.907,294.875 236.994,297.561 C237.701,294.62 236.749,291.683 237.736,288.879 C238.016,289.002 238.33,289.069 238.334,289.152 Z M232.656,308.851 C231.858,309.865 230.813,310.574 228.691,310.493 C231.32,307.081 233.574,304.157 236.055,300.938 C235.753,304.177 234.413,306.615 232.656,308.851 Z M204.677,363.029 C204.595,362.35 204.919,361.622 205.069,360.856 C206.444,360.981 206.79,361.891 207.061,362.805 C207.859,365.493 207.432,368.567 205.738,371.759 C205.112,368.687 205.016,365.838 204.677,363.029 Z M203.35,366.938 C203.459,368.735 203.666,370.497 203.164,372.492 C202.09,370.223 202.117,368.836 203.35,366.938 Z M204.994,379.013 C203.415,380.737 201.475,381.341 199.172,380.778 C198.243,380.551 197.274,380.242 196.345,380.304 C194.588,380.423 193.684,379.364 193.228,378.041 C192.657,376.382 192.452,374.598 192.017,372.526 C192.917,373.319 193.585,373.907 194.408,374.633 C195.28,373.126 194.513,371.717 194.839,370.414 C195.143,369.197 195.182,367.913 195.697,366.852 C196.468,366.642 196.691,367.113 196.745,367.488 C197.085,369.843 196.97,372.203 196.47,374.517 C196.331,375.165 195.729,375.713 195.346,376.295 C196.28,377.289 196.852,377.414 197.356,376.703 C197.659,376.277 197.992,375.791 198.061,375.296 C198.281,373.714 198.4,372.117 198.525,370.523 C198.6,369.572 198.574,368.613 198.681,367.667 C198.708,367.431 199.08,367.049 199.28,367.057 C199.655,367.073 200.248,367.235 200.349,367.493 C200.692,368.371 200.954,369.306 201.065,370.241 C201.151,370.971 200.893,371.736 200.92,372.481 C200.962,373.646 200.998,374.834 201.253,375.963 C201.549,377.276 202.837,377.8 204.034,377.121 C204.757,376.711 205.393,376.1 205.968,375.486 C206.599,374.813 207.115,374.033 207.84,373.094 C207.521,375.573 206.467,377.405 204.994,379.013 Z M159.045,299.571 C158.859,298.146 158.798,296.705 158.695,295.27 C158.678,295.245 158.658,295.22 158.643,295.194 C158.652,295.166 158.662,295.137 158.672,295.109 C157.985,292.724 157.988,292.707 158.468,291.023 C159.549,291.025 159.601,291.82 159.468,292.528 C159.301,293.407 158.952,294.251 158.672,295.109 C158.677,295.129 158.682,295.146 158.688,295.167 L158.643,295.194 L158.688,295.167 C158.691,295.201 158.692,295.236 158.695,295.27 C158.798,295.42 158.918,295.567 158.961,295.733 C159.349,297.266 159.716,298.806 160.095,300.365 C159.207,300.708 159.093,299.942 159.045,299.571 Z M149.003,257.154 C149.856,255.494 151.109,254.515 152.425,253.609 C153.306,253.003 154.2,252.412 155.124,251.874 C158.462,249.931 161.709,247.875 164.052,244.775 C166.537,246.049 166.572,246.088 167.201,248.107 C167.078,248.272 166.984,248.539 166.825,248.586 C163.453,249.581 160.731,251.662 158.081,253.842 C156.328,255.283 154.458,256.499 152.327,257.289 C151.32,257.662 150.297,257.995 149.003,257.154 Z M147.976,253.759 C147.133,254.281 146.218,254.74 145.271,254.205 C144.222,253.611 144.044,252.493 144.114,251.406 C144.192,250.201 144.702,249.155 145.582,248.286 C147.196,246.692 149.019,245.408 151.06,244.422 C153.753,243.12 156.437,241.796 159.128,240.488 C160.67,239.737 161.183,239.83 162.11,241.115 C162.48,241.627 162.738,242.22 163.159,242.979 C161.167,245.909 158.528,247.713 155.691,249.218 C153.143,250.569 150.503,251.746 148.24,253.579 C148.158,253.646 148.066,253.703 147.976,253.759 Z M138.045,219.099 C135.779,221.061 133.502,223.011 131.206,224.938 C129.525,226.348 127.503,226.936 125.272,227.541 C125.074,226.918 124.815,226.526 124.857,226.168 C125.369,221.781 129.955,216.95 134.238,216.365 C135.157,216.24 136.17,216.393 137.066,216.663 C137.709,216.856 138.23,217.456 138.909,217.95 C138.539,218.451 138.347,218.838 138.045,219.099 Z M143.433,224.075 C142.221,224.755 140.985,225.406 139.713,225.966 C136.724,227.282 134.234,229.286 131.874,231.487 C131.175,232.139 130.436,232.747 129.655,233.428 C127.757,232.915 127.135,231.803 126.9,230.43 C129.375,228.649 131.788,227.073 134.012,225.264 C136.159,223.517 138.109,221.529 140.074,219.713 C142.313,219.888 143.426,221.346 144.59,222.595 C144.667,223.566 143.95,223.785 143.433,224.075 Z M145.237,231.18 C143.815,231.925 142.322,232.535 140.901,233.282 C138.621,234.482 136.409,235.79 134.546,237.614 C134.103,238.046 133.567,238.383 133.075,238.762 C131.893,237.86 131.906,236.607 131.452,235.481 C131.911,234.835 132.274,234.172 132.777,233.644 C136.693,229.537 141.564,226.918 146.576,224.611 C148.051,225.347 148.782,226.524 149.887,227.505 C148.56,229.304 146.93,230.294 145.237,231.18 Z M155.32,233.599 C156.658,235.059 157.87,236.383 159.246,237.884 C158.601,238.378 158.173,238.83 157.648,239.086 C155.817,239.981 153.948,240.8 152.101,241.664 C148.459,243.369 145.208,245.603 142.599,248.703 C142.53,248.785 142.469,248.875 142.394,248.951 C141.599,249.748 140.872,249.823 140.193,249.023 C139.445,248.143 138.819,247.159 138.211,246.318 C139.055,244.174 140.631,243.01 142.145,241.832 C143.242,240.977 144.422,240.191 145.661,239.564 C148.549,238.103 151.218,236.319 153.796,234.38 C154.127,234.131 154.542,233.992 155.32,233.599 Z M149.317,235.313 C147.544,236.303 145.714,237.192 143.916,238.138 C142.114,239.086 140.4,240.156 138.95,241.62 C138.429,242.146 137.808,242.589 137.182,242.992 C136.59,243.373 135.962,243.341 135.432,242.81 C134.94,242.316 134.635,241.656 135.027,241.075 C135.733,240.028 136.466,238.926 137.429,238.145 C138.916,236.937 140.537,235.849 142.227,234.947 C144.968,233.485 147.742,232.123 149.992,229.901 C150.749,229.152 151.46,229.246 152.226,230.063 C152.792,230.667 153.246,231.378 154.04,232.424 C152.22,233.544 150.8,234.484 149.317,235.313 Z M122.722,271.671 C122.931,270.399 123.14,269.127 123.349,267.855 C123.858,269.242 123.295,270.457 122.722,271.671 Z M145.593,289.18 C145.672,292.745 144.916,296.237 144.011,299.671 C143.714,300.799 143.185,301.898 142.592,302.912 C140.914,305.787 138.88,308.207 134.853,307.711 C135.253,308.513 135.528,309.064 135.795,309.598 C133.766,313.881 130.742,315.784 126.71,315.249 C126.658,314.068 127.66,313.392 128.075,312.455 C129.057,310.238 130.721,308.874 133.191,308.586 C133.038,307.723 132.866,307.021 132.802,306.311 C132.75,305.724 133.627,305.257 133,304.477 C132.243,305.055 131.514,305.676 130.716,306.189 C130.405,306.389 129.873,306.503 129.554,306.376 C128.982,306.147 128.888,305.513 129.081,304.994 C129.44,304.025 129.909,303.097 130.417,301.963 C129.171,301.923 128.828,302.817 128.307,303.372 C127.448,304.287 126.48,304.443 125.383,303.961 C123.511,303.138 121.77,302.102 120.363,300.867 C119.683,299.322 121.614,298.243 120.681,296.554 C119.91,297.361 119.272,298.029 118.506,298.832 C117.967,298.637 117.322,298.531 116.828,298.2 C115.492,297.305 114.228,296.305 112.923,295.363 C112.144,294.802 111.343,294.271 110.552,293.727 C108.919,292.211 107.292,290.69 105.642,289.193 C105.536,289.098 105.253,289.199 104.761,289.222 C106.432,291.189 108.031,292.93 110.263,293.979 C112.405,296.059 114.546,298.14 116.779,300.309 C115.93,303.119 113.636,304.472 111.527,305.997 C109.219,304.994 107.386,303.679 105.794,302.082 C103.215,299.496 100.709,296.835 98.223,294.16 C95.883,291.642 93.577,289.092 91.324,286.497 C90.596,285.658 89.766,285.497 88.68,285.613 C87.188,283.528 86.362,281.131 85.444,278.42 C87.589,279.115 88.48,281.021 90.194,281.781 C89.252,279.15 87.27,277.324 85.427,275.484 C83.54,273.599 81.408,271.905 79.184,270.427 C76.981,268.963 74.531,267.871 71.962,266.495 C72.435,265.943 72.699,265.495 73.084,265.209 C74.941,263.828 77.107,263.179 79.341,262.772 C85.916,261.575 92.22,262.66 98.159,265.521 C100.516,266.658 102.873,268.085 104.409,270.424 C103.788,271.152 103.433,270.496 103.041,270.309 C102.571,270.084 102.136,269.789 101.718,269.544 C101.116,270.102 101.51,270.471 101.804,270.708 C102.975,271.651 104.123,272.646 105.399,273.429 C109.813,276.138 113.775,279.443 117.833,282.63 C121.56,285.557 125.503,288.151 129.828,290.144 C131.617,290.968 133.5,291.328 135.412,291.641 C137.487,291.981 139.278,291.303 140.758,289.951 C142.234,288.603 142.876,286.847 142.588,284.243 C141.936,285.506 141.563,286.338 141.092,287.109 C140.618,287.887 140.436,288.942 138.993,289.34 C141.059,285.642 141.646,281.843 141.553,277.971 C141.484,275.081 141.156,272.185 140.753,269.319 C140.201,265.39 139.465,261.487 138.814,257.571 C138.706,256.923 138.589,256.297 137.623,256.001 C136.819,260.415 137.39,264.928 136.594,269.387 C136.028,269.034 136.22,268.16 135.214,268.384 C134.875,270.348 135.194,272.521 134.366,274.581 C132.325,273.573 132.426,270.658 130.118,270.015 C128.9,270.836 129.36,272.275 128.686,273.241 C127.971,273.229 127.98,272.613 127.86,272.163 C127.337,270.19 126.858,268.205 126.338,266.231 C126.152,265.525 125.895,264.837 125.657,264.101 C125.532,264.186 123.521,265.557 123.497,265.573 C122.748,264.372 123.874,262.795 122.825,261.671 C121.753,261.755 121.93,262.582 121.847,263.133 C121.56,265.042 121.397,266.969 121.11,268.878 C120.951,269.932 120.64,270.964 120.394,272.019 C119.398,271.95 118.466,271.782 117.856,272.67 C117.85,272.701 117.843,272.732 117.837,272.763 L117.81,272.728 C117.81,272.728 117.837,272.763 117.837,272.764 C117.797,272.819 117.758,272.874 117.724,272.921 C117.723,272.921 117.723,272.922 117.723,272.922 C117.698,272.977 117.69,272.997 117.68,273.019 C117.66,273.063 117.661,273.061 117.68,273.019 C117.691,272.995 117.705,272.961 117.723,272.922 C117.575,273.125 117.625,273.057 117.724,272.921 C117.749,272.864 117.779,272.798 117.81,272.728 C117.824,272.706 117.841,272.691 117.856,272.67 C118.09,271.453 118.471,270.25 117.425,269.128 C117.12,268.8 117.045,268.135 117.076,267.638 C117.622,258.661 117.147,249.745 115.406,240.676 C116.014,240.979 116.436,241.189 116.859,241.398 C117.296,244.341 117.5,244.794 118.799,245.53 C118.844,243.833 118.052,242.494 117.316,241.138 C117.224,240.617 117.133,240.096 117.033,239.527 C118.094,239.403 117.873,240.346 118.151,240.788 C118.547,241.415 118.748,242.161 119.092,242.825 C119.377,243.375 119.748,243.881 120.353,244.836 C120.497,243.96 120.657,243.577 120.602,243.229 C120.173,240.522 118.71,238.257 117.438,235.906 C116.268,233.743 115.095,231.577 114.06,229.348 C112.75,226.528 112.888,223.782 114.694,221.13 C115.772,219.546 116.646,217.823 117.632,216.175 C117.903,215.721 118.161,215.186 118.573,214.902 C120.338,213.687 122.145,212.491 124.425,212.606 C124.923,212.631 125.574,212.769 125.855,213.105 C126.129,213.432 126.062,214.043 126.123,214.547 C127.042,214.288 127.957,214.012 128.882,213.777 C129.709,213.567 130.554,213.322 131.517,214.062 C131.325,214.375 131.201,214.785 130.925,214.99 C130.15,215.566 129.326,216.079 128.498,216.578 C125.656,218.289 123.561,220.681 122.037,223.603 C121.792,224.072 121.52,224.526 121.206,225.084 C120.551,225.125 119.923,225.189 119.294,225.198 C117.016,225.23 115.076,227.714 115.733,230.649 C115.798,230.943 116.013,231.388 116.227,231.433 C117.926,231.785 118.151,233.337 118.781,234.519 C121.854,240.29 123.73,246.412 124.047,252.974 C124.067,253.391 124.135,253.805 124.177,254.186 C124.966,254.454 124.864,253.811 125.074,253.506 C126.772,253.667 127.498,253.866 128.365,254.435 C128.735,253.955 129.107,253.467 129.484,252.984 C130.066,252.238 130.636,253.423 131.389,252.872 C131.538,251.36 131.703,249.694 131.863,248.078 C132.682,247.964 132.682,248.427 132.749,248.826 C133.03,250.483 133.309,252.14 133.578,253.731 C134.406,253.837 134.525,253.378 134.498,252.954 C134.397,251.351 134.22,249.753 134.114,248.15 C134.08,247.622 134.137,247.08 134.225,246.556 C134.341,245.864 135.164,245.472 135.714,245.902 C136.379,246.42 137.055,246.992 137.522,247.679 C138.681,249.385 139.882,251.02 141.794,251.917 C141.901,252.573 142.05,253.093 142.061,253.615 C142.2,259.866 143.081,266.041 144.161,272.176 C145.154,277.814 145.466,283.489 145.593,289.18 Z M123.64,314.601 C123.098,314.368 122.602,314.196 122.15,313.944 C121.896,313.803 121.714,313.53 121.394,313.211 C122.48,311.863 123.521,310.537 124.605,309.246 C124.944,308.842 125.378,308.51 125.803,308.189 C126.581,307.601 127.388,307.101 128.451,307.403 C129.003,307.56 129.37,308.2 129.029,308.63 C127.381,310.713 125.646,312.718 123.64,314.601 Z M118.266,311.351 C116.528,310.484 114.981,309.431 113.735,307.793 C114.957,305.368 117.191,303.96 118.802,301.854 C121.191,302.823 122.975,304.493 125.17,305.861 C123.337,308.474 120.977,310.044 118.266,311.351 Z M135.674,206.638 C133.075,209.753 129.827,211.286 126.458,210.944 C129.1,208.401 132.188,207.354 135.674,206.638 Z M255.137,225.604 C253.556,224.986 251.983,224.383 250.648,223.282 C250.371,223.054 249.923,222.943 249.551,222.934 C247.827,222.895 246.613,221.883 245.354,221.015 C245.469,219.609 246.393,218.987 247.306,218.481 C250.928,216.473 250.286,215.985 253.715,218.685 C255.059,219.744 256.392,220.834 257.618,222.025 C260.316,224.645 263.158,227.074 266.34,229.092 C266.788,229.376 267.286,229.664 267.58,230.079 C267.773,230.352 267.803,230.955 267.627,231.237 C267.027,232.2 266.099,232.675 264.974,232.687 C264.677,232.422 264.39,232.245 264.209,231.993 C261.926,228.807 258.68,226.989 255.137,225.604 Z M258.365,241.962 C258.167,242.007 257.936,241.973 257.736,241.917 C257.535,241.861 257.315,241.77 257.171,241.627 C253.13,237.615 248.027,235.325 243.034,232.842 C241.501,232.08 240.052,231.137 238.619,230.193 C237.92,229.732 237.347,229.078 236.445,228.265 C237.587,227.039 238.453,226.109 239.441,225.048 C240.013,225.404 240.614,225.641 241.029,226.063 C242.33,227.384 243.865,228.343 245.475,229.218 C248.398,230.807 251.362,232.328 254.206,234.049 C256.122,235.209 257.948,236.559 259.649,238.018 C261.03,239.204 260.193,241.555 258.365,241.962 Z M251.751,230.544 C249.07,229.218 246.471,227.719 243.89,226.203 C242.904,225.625 241.878,224.988 241.322,223.867 C241.676,222.785 242.491,222.362 243.607,222.031 C247.4,224.466 251.797,225.889 255.893,227.941 C258.052,229.024 260.21,230.254 261.38,232.632 C262.098,234.089 262.218,234.105 262.065,236.395 C261.459,236.021 260.922,235.734 260.434,235.381 C257.73,233.424 254.729,232.017 251.751,230.544 Z M208.974,243.545 C209.35,240.341 210.552,237.488 213.246,235.551 C214.274,234.813 214.942,233.961 215.343,232.819 C216.046,230.821 217.231,229.217 219.13,228.196 C220.12,227.664 220.789,226.863 221.172,225.804 C221.545,224.769 222.22,224.004 223.088,223.292 C225.158,221.594 227.141,219.785 229.115,217.974 C231.25,216.014 233.235,213.876 235.48,212.056 C237.043,210.788 238.854,209.743 240.699,208.926 C243.29,207.779 245.9,207.815 248.294,209.685 C249.717,210.796 251.235,211.787 252.719,212.838 C251.994,214.569 250.387,214.339 249.063,214.76 C247.94,216.849 245.817,217.79 243.937,218.995 C243.21,219.461 242.413,219.76 242.05,220.621 C242.01,220.717 241.913,220.787 241.858,220.879 C241.005,222.296 239.049,222.219 238.173,223.816 C237.488,225.064 236.115,225.934 234.985,227.033 C233.502,226.391 232.175,225.816 230.689,225.172 C230.97,226.916 232.775,226.777 233.301,227.929 C232.591,230.314 232.309,230.655 228.422,233.762 C227.647,233.523 226.78,233.255 225.91,232.988 C226.305,233.703 226.702,234.422 227.187,235.302 C226.156,236.721 225.517,238.704 223.048,238.374 C223.409,239.475 223.201,240.476 222.453,241.349 C221.694,242.233 220.899,243.085 220.094,243.979 C217.88,243.465 216.426,241.627 214.295,241.089 C214.403,243.076 214.403,243.076 218.332,245.329 C218.547,247.472 217.019,248.658 215.664,250.07 C212.914,249.365 211.017,247.68 209.419,245.656 C209.015,245.144 208.893,244.233 208.974,243.545 Z M252.424,207.454 C253.788,207.795 255.609,209.063 257.092,210.638 C256.915,211.464 256.295,211.62 255.625,211.466 C253.487,210.972 251.669,209.928 250.088,208.118 C250.928,207.188 251.683,207.268 252.424,207.454 Z M262.26,209.088 C261.269,209.286 260.859,209.505 260.552,209.406 C259.268,208.993 258.137,208.296 257.465,206.927 C258.864,207.558 260.264,208.188 262.26,209.088 Z M266.901,208.591 C265.289,209.301 265.131,209.251 262.415,207.14 C264.197,207.227 265.607,207.599 266.901,208.591 Z M328.594,263.32 C328.373,262.326 327.984,261.495 326.98,261.067 C326.092,260.688 325.24,260.218 324.335,259.888 C320.786,258.592 317.135,257.899 313.349,257.555 C308.116,257.08 303.297,258.049 298.781,260.62 C294.176,263.243 290.075,266.528 286.372,270.316 C285.699,271.004 284.975,271.648 284.229,272.256 C283.509,272.844 282.729,273.36 281.912,273.953 C280.848,272.645 280.518,271.256 280.271,269.924 C278.759,261.77 279.144,253.662 281.075,245.613 C281.376,244.358 281.79,243.122 281.984,241.851 C282.776,236.653 284.594,231.661 284.771,226.322 C284.92,221.851 283.751,218.009 280.575,214.902 C278.739,213.107 276.733,211.46 274.672,209.924 C269.475,206.05 262.733,203.884 256.321,203.871 C255.138,203.868 253.954,203.847 252.774,203.903 C251.264,203.973 249.714,204.105 248.462,205.014 C247.32,205.843 246.11,205.928 244.797,205.911 C241.558,205.868 238.672,206.929 236.102,208.867 C235.157,209.58 234.196,210.286 233.344,211.1 C230.92,213.416 228.219,215.363 225.457,217.238 C224.656,217.782 223.883,218.365 223.091,218.922 C221.288,220.188 219.806,221.703 219.216,223.91 C218.89,225.133 218.07,225.947 217.029,226.587 C216.571,226.869 216.148,227.213 215.672,227.458 C214.446,228.091 213.634,229.041 213.394,230.406 C212.995,232.677 211.584,234.242 209.876,235.625 C208.878,236.432 207.905,237.269 206.92,238.093 C206.451,238.048 206.015,238.051 205.6,237.958 C199.931,236.692 194.267,237.178 188.603,237.992 C185.791,239.394 183.929,237.79 182.302,235.858 C181.209,234.559 180.366,233.049 179.403,231.64 C179.046,231.117 178.763,230.475 178.276,230.122 C176.828,229.072 175.89,227.675 175.13,226.103 C174.033,223.836 172.453,221.952 170.452,220.431 C165.826,216.915 161.442,213.128 157.219,209.133 C155.419,207.432 153.139,206.087 150.594,206.218 C147.773,206.362 145.233,205.5 142.776,204.54 C138.509,202.874 134.353,203.156 130.163,204.484 C126.115,205.767 122.555,207.979 119.274,210.639 C115.948,213.336 113.212,216.507 112.296,220.809 C111.809,223.098 111.563,225.476 111.537,227.817 C111.498,231.256 111.87,234.681 112.487,238.08 C113.331,242.735 114.105,247.403 114.852,252.074 C115.883,258.521 115.721,264.932 114.061,271.269 C113.769,272.382 113.759,273.651 112.471,274.566 C111.456,273.914 110.502,273.07 109.548,272.222 C107.221,270.155 104.911,268.066 102.548,266.041 C98.183,262.301 93.257,260.015 87.39,259.674 C83.456,259.446 79.664,259.827 75.958,261.013 C73.37,261.841 71.011,263.138 69.474,265.536 C68.766,266.641 68.935,267.67 70.08,268.26 C71.122,268.798 72.253,269.175 73.368,269.557 C76.416,270.603 79.007,272.216 80.518,275.196 C81.489,277.109 82.569,278.981 83.367,280.965 C85.08,285.223 87.419,288.999 90.856,292.103 C93.164,294.186 95.276,296.468 97.724,298.422 C102.176,301.977 106.428,305.782 110.872,309.347 C113.549,311.495 116.389,313.448 119.238,315.366 C120.473,316.198 121.87,316.845 123.272,317.366 C127.437,318.912 131.304,318.376 134.714,315.403 C135.361,314.839 136.008,314.252 136.541,313.585 C139.158,310.307 141.791,307.041 144.314,303.691 C147.618,299.303 149.031,294.329 148.547,288.843 C148.33,286.38 148.158,283.908 147.807,281.463 C147.287,277.848 146.558,274.263 146.044,270.647 C145.575,267.352 145.245,264.037 144.918,260.724 C144.838,259.923 144.855,259.044 145.615,258.341 C146.763,259.275 147.044,260.567 147.596,261.695 C148.208,262.946 148.823,264.196 149.44,265.445 C150.245,267.075 151.648,267.714 153.375,267.796 C154.222,267.835 155.071,267.849 155.452,267.86 C157.701,269.86 159.641,271.547 161.533,273.285 C162.236,273.93 162.898,274.646 163.45,275.422 C163.858,275.996 163.698,276.678 163.169,277.171 C162.779,277.536 162.344,277.866 161.889,278.147 C160.975,278.711 160.04,279.244 159.1,279.765 C157.551,280.624 156.822,281.819 156.861,283.694 C156.9,285.609 156.716,287.577 156.292,289.445 C154.792,296.054 156.422,302.055 159.796,307.653 C161.905,311.153 165.015,313.623 168.953,314.865 C170.819,317.98 172.242,321.235 173.39,324.589 C174.833,328.808 175.72,333.069 173.799,337.465 C173.008,339.274 173.535,341.081 174.842,342.57 C175.692,343.538 176.594,344.466 177.529,345.353 C178.778,346.536 179.398,347.948 179.348,349.667 C179.332,350.193 179.376,350.721 179.389,351.123 C182.844,354.64 183.448,355.886 184.424,360.758 C184.846,362.864 185.391,364.949 185.982,367.015 C186.274,368.037 186.617,369.131 187.246,369.956 C189.204,372.524 190.265,375.374 190.469,378.571 C190.483,378.785 190.533,378.997 190.559,379.21 C190.818,381.315 192.141,382.505 194.082,382.91 C196.075,383.325 198.114,383.556 200.143,383.76 C203.765,384.124 206.371,382.505 208.134,379.422 C208.773,378.305 209.444,377.179 209.883,375.978 C210.695,373.759 211.404,371.497 212.053,369.224 C213.144,365.402 214.21,361.571 215.178,357.717 C215.767,355.37 216.959,353.35 218.211,351.343 C218.607,350.71 219.083,350.129 219.479,349.583 C219.472,349.157 219.512,348.827 219.453,348.517 C219.027,346.28 219.845,344.518 221.477,343.045 C222.195,342.396 222.916,341.748 223.599,341.063 C225.458,339.201 225.991,336.939 225.03,334.546 C223.813,331.516 223.757,328.476 224.4,325.368 C225.598,319.582 228.118,314.603 233.295,311.353 C234.452,310.626 235.167,309.619 235.786,308.473 C238.206,303.987 239.488,299.095 240.843,294.232 C241.041,293.521 241.106,292.736 241.052,291.997 C240.811,288.678 240.534,285.36 240.205,282.048 C240.11,281.098 239.906,280.128 239.56,279.241 C238.584,276.74 236.37,275.779 233.81,276.649 C233.015,276.919 232.226,277.205 231.466,277.472 C230.38,276.591 229.017,276.148 229.103,274.349 C230.17,273.702 231.233,272.976 232.368,272.39 C234.311,271.388 236.078,270.134 237.352,268.38 C238.324,267.041 239.402,266.323 241.078,266.317 C242.999,266.311 244.301,265.221 245.035,263.498 C245.582,262.214 246.043,260.893 246.507,259.576 C246.601,259.309 246.69,259.066 246.775,258.841 C247.067,258.079 247.334,257.54 247.681,257.046 C247.816,256.853 247.966,256.663 248.135,256.474 C248.173,256.432 248.206,256.389 248.246,256.346 C248.512,256.061 248.825,255.764 249.21,255.419 C249.305,255.534 249.45,255.642 249.524,255.759 C249.549,255.798 249.566,255.837 249.571,255.879 C249.644,256.515 249.727,257.164 249.675,257.798 C249.516,259.727 249.267,261.649 249.108,263.578 C248.835,266.905 248.287,270.176 247.535,273.434 C246.423,278.254 245.421,283.116 245.527,288.1 C245.603,291.646 245.786,295.194 247.504,298.452 C250.199,303.563 253.777,307.976 258.162,311.694 C261.194,314.264 264.652,315.871 268.82,315.347 C271,315.073 273.055,314.396 274.889,313.282 C278.009,311.387 281.096,309.408 284.029,307.237 C290.348,302.562 296.204,297.326 302.043,292.068 C307.127,287.491 311.503,282.443 314.479,276.19 C316.615,271.703 319.796,268.13 324.815,266.601 C325.926,266.263 326.956,265.61 327.966,265.006 C328.55,264.657 328.755,264.045 328.594,263.32 Z" ></path>
            <path d="M222.966,238.334 C222.554,237.866 222.185,237.344 221.702,236.968 C221.468,236.785 221.003,236.897 220.516,236.869 C221.083,238.152 221.99,238.316 222.966,238.334" ></path>
        </g>
    </g>
</svg>